<?xml version="1.0" encoding="utf-8"?>
<!-- Generator: Adobe Illustrator 16.0.0, SVG Export Plug-In . SVG Version: 6.00 Build 0)  -->
<!DOCTYPE svg PUBLIC "-//W3C//DTD SVG 1.1//EN" "http://www.w3.org/Graphics/SVG/1.1/DTD/svg11.dtd">
<svg version="1.1" id="Laag_1" xmlns="http://www.w3.org/2000/svg" xmlns:xlink="http://www.w3.org/1999/xlink" x="0px" y="0px"
	 width="581.389px" height="186.652px" viewBox="0 0 581.389 186.652" enable-background="new 0 0 581.389 186.652"
	 xml:space="preserve">
<text transform="matrix(1 0 0 1 -2927.6284 461.9688)"><tspan x="0" y="0" font-family="'Museo-300'" font-size="35.2852">Aimfor </tspan><tspan x="0" y="29" font-family="'Museo-300'" font-size="35.2852">  themoon</tspan></text>
<path fill="#1D1E1C" d="M-2912.422,463.036c-0.032,3.367-2.794,7.73-3.663,7.73c-0.833,0-3.576-4.434-3.542-7.801
	c0.033-3.367,1.671-6.08,3.663-6.059C-2913.975,456.925-2912.39,459.671-2912.422,463.036z"/>
<path fill="#FFFFFF" d="M-2913.518,458.687c-0.021,2.32-1.148,4.76-2.514,4.748c-1.366-0.014-2.454-2.477-2.432-4.795
	c0.023-2.32,1.147-4.189,2.514-4.176C-2914.584,454.478-2913.496,456.368-2913.518,458.687z"/>
<path fill="#FFFFFF" d="M69.488,76.803c0,1.602,0.915,2.516,2.517,2.516h4.572v12.238H62.738c-5.375,0-7.663-2.289-7.663-7.775
	l-0.008-19.67l-25.779-9.436l-9.6,11.6c0,0-5.834,4.932-11.197,2.965L0,66.135l4.368-11.924l1.71,0.627
	c1.831,0.674,2.845,0.557,4.2-1.145L55.63,0l13.858,5.385V76.803z M56.09,51.334l0.444-21.521c0.137-4.699,1.159-12.49,1.159-12.49
	l-0.218-0.078c0,0-4.242,6.611-7.178,10.293L36.746,44.256L56.09,51.334z M88.044,48.084c0-1.715-0.917-2.52-2.519-2.52h-4.571
	v-12.35h13.834c5.385,0,7.668,2.4,7.668,7.781v35.807c0,1.602,0.914,2.516,2.523,2.516h4.57v12.238H95.711
	c-5.379,0-7.667-2.289-7.667-7.775V48.084z M88.724,10.334h12.588v13.389H88.724V10.334z M121.796,48.084
	c0-1.715-0.918-2.52-2.518-2.52h-4.574v-12.35h13.389c5.148,0,7.658,2.4,7.658,6.52v1.715c0,1.262-0.107,2.518-0.107,2.518h0.224
	c2.749-5.715,9.725-12.123,18.879-12.123c8.808,0,14.526,4.115,17.046,12.012h0.229c3.091-6.291,10.638-12.012,19.903-12.012
	c12.125,0,19.105,6.863,19.105,22.191v22.768c0,1.602,0.911,2.516,2.515,2.516h4.472v12.238h-13.738
	c-5.486,0-7.779-2.289-7.779-7.775V56.777c0-6.631-1.25-11.666-8.013-11.666c-7.2,0-12.351,6.061-13.946,13.387
	c-0.695,2.285-0.924,4.689-0.924,7.432v25.627h-14.524V56.777c0-6.293-0.913-11.666-7.896-11.666c-7.318,0-12.236,6.061-14.068,13.5
	c-0.578,2.283-0.916,4.688-0.916,7.318v25.627h-14.416V48.084z M229.692,44.768h-7.201V33.215h7.201v-1.721
	c0-19.102,15.678-21.615,23.795-21.615c2.98,0,4.929,0.342,4.929,0.342v12.357c0,0-1.263-0.232-2.979-0.232
	c-4.122,0-11.216,1.033-11.216,9.498v1.371h12.471v11.553h-12.471v46.789h-14.529V44.768z M292.743,31.844
	c17.848,0,32.033,12.697,32.033,30.537c0,17.969-14.186,30.551-32.033,30.551c-17.732,0-31.921-12.582-31.921-30.551
	C260.822,44.541,275.011,31.844,292.743,31.844z M292.743,80.578c9.494,0,17.386-7.328,17.386-18.197
	c0-10.746-7.892-18.184-17.386-18.184c-9.385,0-17.279,7.438-17.279,18.184C275.464,73.25,283.358,80.578,292.743,80.578z
	 M337.938,48.084c0-1.715-0.913-2.52-2.517-2.52h-4.565v-12.35h13.264c5.15,0,7.777,2.172,7.777,7.092v3.434
	c0,2.172-0.227,3.662-0.227,3.662h0.227c2.632-8.354,9.607-14.99,18.536-14.99c1.257,0,2.632,0.232,2.632,0.232v14.297
	c0,0-1.488-0.225-3.547-0.225c-6.18,0-13.271,3.545-15.904,12.236c-0.799,2.861-1.26,6.068-1.26,9.498v23.105h-14.416V48.084z
	 M87.815,135.566h-7.555v-11.555h7.899v-19.508h14.188v19.508h13.268v11.555h-13.268v23.57c0,9.611,7.543,10.979,11.553,10.979
	c1.602,0,2.628-0.229,2.628-0.229v12.697c0,0-1.833,0.346-4.458,0.346c-8.121,0-24.256-2.402-24.256-21.961V135.566z
	 M128.78,119.254c0-1.723-0.92-2.523-2.521-2.523h-4.57v-12.357h13.842c5.373,0,7.779,2.404,7.779,7.67v17.238
	c0,2.854-0.229,4.916-0.229,4.916h0.229c2.744-5.609,9.951-11.557,20.022-11.557c13.033,0,20.356,6.748,20.356,22.199v22.756
	c0,1.605,0.918,2.52,2.526,2.52h4.567v12.244H176.94c-5.381,0-7.663-2.285-7.663-7.779v-26.771c0-7.094-1.942-11.898-9.271-11.898
	c-7.665,0-13.61,5.033-15.789,12.127c-0.682,2.287-0.908,4.809-0.908,7.551v26.771H128.78V119.254z M226.257,122.641
	c16.707,0,25.859,12.236,25.859,27.684c0,1.717-0.34,5.381-0.34,5.381h-40.277c1.146,10.293,8.696,15.668,17.508,15.668
	c9.381,0,16.355-6.516,16.355-6.516l6.069,10.068c0,0-8.931,8.809-23.455,8.809c-19.329,0-31.347-13.961-31.347-30.549
	C196.63,135.227,208.757,122.641,226.257,122.641z M237.243,145.635c-0.229-6.977-5.037-11.777-10.986-11.777
	c-7.435,0-12.693,4.459-14.297,11.777H237.243z M266.199,138.881c0-1.709-0.915-2.51-2.515-2.51h-4.58v-12.359h13.387
	c5.152,0,7.671,2.402,7.671,6.521v1.719c0,1.256-0.114,2.516-0.114,2.516h0.225c2.744-5.717,9.714-12.127,18.87-12.127
	c8.81,0,14.533,4.123,17.052,12.01h0.23c3.084-6.289,10.637-12.01,19.904-12.01c12.124,0,19.104,6.865,19.104,22.199v22.756
	c0,1.605,0.917,2.52,2.524,2.52h4.449v12.244h-13.724c-5.485,0-7.781-2.285-7.781-7.779v-26.998c0-6.639-1.251-11.672-8.005-11.672
	c-7.209,0-12.359,6.062-13.957,13.387c-0.69,2.287-0.912,4.688-0.912,7.432v25.631h-14.531v-34.777
	c0-6.295-0.919-11.672-7.899-11.672c-7.314,0-12.239,6.062-14.075,13.5c-0.562,2.283-0.908,4.689-0.908,7.318v25.631h-14.415
	V138.881z M400.185,122.641c17.848,0,32.041,12.697,32.041,30.545c0,17.961-14.193,30.549-32.041,30.549
	c-17.732,0-31.921-12.588-31.921-30.549C368.264,135.338,382.452,122.641,400.185,122.641z M400.185,171.373
	c9.494,0,17.39-7.318,17.39-18.188c0-10.752-7.896-18.189-17.39-18.189c-9.381,0-17.275,7.438-17.275,18.189
	C382.909,164.055,390.804,171.373,400.185,171.373z M471.468,122.641c17.846,0,32.03,12.697,32.03,30.545
	c0,17.961-14.185,30.549-32.03,30.549c-17.734,0-31.922-12.588-31.922-30.549C439.546,135.338,453.733,122.641,471.468,122.641z
	 M471.468,171.373c9.498,0,17.391-7.318,17.391-18.188c0-10.752-7.893-18.189-17.391-18.189c-9.379,0-17.274,7.438-17.274,18.189
	C454.193,164.055,462.089,171.373,471.468,171.373z M516.659,138.881c0-1.709-0.904-2.51-2.501-2.51h-4.58v-12.359h13.378
	c5.152,0,7.668,2.402,7.668,6.521v1.719c0,1.256-0.231,2.516-0.231,2.516h0.231c2.52-4.914,8.809-12.127,20.596-12.127
	c12.924,0,20.355,6.748,20.355,22.199v22.756c0,1.605,0.919,2.52,2.522,2.52h4.576v12.244h-13.845c-5.482,0-7.772-2.285-7.772-7.779
	v-26.771c0-7.094-1.833-11.898-9.161-11.898c-7.771,0-13.609,4.926-15.665,11.898c-0.81,2.402-1.149,5.037-1.149,7.779v26.771
	h-14.422V138.881z"/>
<g>
	<path fill="#E40D22" d="M43.693,78.721c-0.131,2.305-0.6,4.768-1.538,7.26c-1.549,4.139-5.006,8.295-8.331,11.289
		c-0.605-4.207,2.229-13.35,2.229-13.35s-8.246,4.965-9.775,18.602c-2.011-1.891-4.648-15.303-1.74-23.117
		c0.912-2.441,2.142-4.566,3.507-6.369c-4.286,2.818-8.32,8.072-10.807,14.732c-4.36,11.705-0.263,31.178,2.638,32.232
		c3.026,1.098,17.018-8.85,22.396-22.889C44.844,90.395,45.148,83.682,43.693,78.721z"/>
</g>
</svg>
