<?xml version="1.0" encoding="utf-8"?>
<!-- Generator: Adobe Illustrator 16.0.0, SVG Export Plug-In . SVG Version: 6.00 Build 0)  -->
<!DOCTYPE svg PUBLIC "-//W3C//DTD SVG 1.1 Tiny//EN" "http://www.w3.org/Graphics/SVG/1.1/DTD/svg11-tiny.dtd">
<svg version="1.1" baseProfile="tiny" id="Laag_1" xmlns="http://www.w3.org/2000/svg" xmlns:xlink="http://www.w3.org/1999/xlink"
	 x="0px" y="0px" width="98.793px" height="22.271px" viewBox="0 0 98.793 22.271" xml:space="preserve">
<path d="M25.348,10.648c0.93-0.469,1.448-1.229,1.45-2.32c-0.002-2.07-1.374-2.754-3.409-2.754h-5.023l-0.001,11.109l5.169,0.001
	c1.934-0.001,3.777-0.968,3.774-3.225C27.305,12.079,26.648,11.036,25.348,10.648z M20.711,7.471h2.201
	c0.833,0,1.617,0.218,1.613,1.278c0.004,0.932-0.611,1.319-1.435,1.326H20.71L20.711,7.471z M23.225,14.788H20.71v-3.053
	l2.561-0.001c0.998,0.001,1.688,0.457,1.688,1.59C24.958,14.478,24.152,14.788,23.225,14.788z M30.4,7.392V5.574l-2.125,0
	l0.003,1.819L30.4,7.392z M30.4,8.636l-2.122,0.001l-0.003,8.046l2.125,0.001V8.636z M31.687,16.981
	c-0.003,0.602-0.395,0.717-0.825,0.716c-0.177,0.001-0.329-0.017-0.462-0.065v1.823c0.225,0.033,0.462,0.063,0.686,0.061
	c2.138,0.003,2.72-0.778,2.724-2.428V8.64h-2.125L31.687,16.981z M31.688,7.392l2.121,0.002v-1.82h-2.125L31.688,7.392z
	 M38.771,8.421c-2.346,0-3.95,1.837-3.946,4.25c0,2.486,1.509,4.231,3.946,4.231c1.743,0.002,3.021-0.811,3.616-2.707l-1.87,0.005
	c-0.132,0.494-0.821,1.039-1.673,1.041c-1.18-0.005-1.84-0.642-1.901-2.043h5.581C42.675,10.719,41.4,8.421,38.771,8.421z
	 M36.947,11.802c0.023-0.624,0.418-1.717,1.765-1.715c1.031-0.001,1.492,0.592,1.691,1.711L36.947,11.802z M47.754,8.419
	c-0.896,0.002-1.826,0.437-2.362,1.339l-0.044-0.001V8.636l-2.02,0.004v8.042h2.125l-0.002-4.211
	c0.004-1.64,0.494-2.308,1.645-2.308c0.988,0.002,1.361,0.651,1.361,1.979v4.541l2.121-0.002l0.004-4.948
	C50.582,9.742,50.015,8.419,47.754,8.419z M59.001,8.64l-2.513,0l-2.675,2.895V5.574h-2.127l0.006,11.108l2.121,0.002v-2.77
	l0.82-0.822l2.126,3.59h2.568l-3.243-5.086L59.001,8.64z M62.884,8.421c-2.423,0.003-3.995,1.682-3.998,4.252
	c0.003,2.551,1.575,4.229,3.998,4.231c2.438-0.002,4.008-1.681,4.005-4.235C66.892,10.102,65.318,8.421,62.884,8.421z
	 M62.884,15.236c-1.438,0.006-1.87-1.289-1.87-2.565c0.003-1.293,0.437-2.585,1.87-2.58c1.447-0.005,1.882,1.287,1.885,2.58
	C64.769,13.947,64.331,15.239,62.884,15.236z M69.837,10.131V8.64h-2.022l0.003,8.042l2.122,0.002v-3.622
	c-0.004-1.42,0.54-2.586,2.092-2.586c0.256,0,0.568,0.031,0.763,0.078L72.797,8.5c-0.14-0.05-0.315-0.077-0.466-0.077
	C71.3,8.421,70.256,9.118,69.837,10.131z M73.646,8.015l0.004,0.625v1.477l-0.004,6.567l2.125-0.002l-0.003-6.565h1.466v-1.48
	l-1.466-0.001l-0.002-0.481c0.002-0.667,0.242-0.916,0.811-0.916c0.27-0.003,0.522,0.014,0.776,0.046V5.636
	c-0.361-0.016-0.749-0.062-1.125-0.062C74.497,5.574,73.646,6.602,73.646,8.015z M15.265,10.543
	C14.586,9.125,13.54,8.31,12.003,8.31c-2.496,0-3.74,2.074-3.74,4.404c0,2.209,1.673,4.178,3.73,4.178
	c3.048,0,3.618-2.355,3.669-2.623l-1.953-0.003c-0.365,0.664-0.873,0.991-1.595,0.991c-1.066,0-1.973-0.914-1.92-2.119l5.568-0.004
	c0-0.273,0.004-0.521-0.059-1.002C15.643,11.639,15.479,10.976,15.265,10.543z M10.229,11.751c0.035-0.788,0.466-1.849,1.798-1.851
	c1.085-0.001,1.705,0.842,1.707,1.852L10.229,11.751z M7.424,15.142V5.561L5.556,5.558L5.525,9.4C5.327,9.075,4.552,8.37,3.24,8.372
	C1.485,8.375,0,9.94,0,12.819c0,1.99,1.187,4.133,3.282,4.133c1.126,0.002,1.815-0.609,2.188-1.099c0,0.365,0.019,0.462,0.044,0.833
	h1.923C7.405,16.178,7.426,15.657,7.424,15.142z M3.839,15.329c-1.478,0-1.896-1.488-1.896-2.654
	c0.005-1.101,0.359-2.651,1.896-2.651c1.342,0,1.792,1.547,1.794,2.649C5.631,13.776,5.184,15.329,3.839,15.329z M89.864,0
	l-8.973,5.567l-0.003,11.139l8.976,5.564l8.929-5.536V5.543L89.864,0z M89.074,19.865l-6.641-4.121l0.003-9.21l6.638-4.121v1.085
	c-1.427,0.211-3.295,1.895-3.295,4.191l-0.004,3.735l-2.484,0.001v4.124h5.783V19.865z M90.612,19.88l0.004-6l-5.785,0.006
	l-0.002-0.798l2.491,0.001V7.75c-0.003-1.372,1.029-2.702,2.684-2.702h0.609l0.003-2.658l6.634,4.116l0.002,9.261L90.612,19.88z"/>
</svg>
