<?xml version="1.0" encoding="UTF-8"?>
<svg width="1000px" height="243px" viewBox="0 0 1000 243" version="1.1" xmlns="http://www.w3.org/2000/svg" xmlns:xlink="http://www.w3.org/1999/xlink">
    <!-- Generator: Sketch 42 (36781) - http://www.bohemiancoding.com/sketch -->
    <title>Slice 1</title>
    <desc>Created with Sketch.</desc>
    <defs></defs>
    <g id="Page-1" stroke="none" stroke-width="1" fill="none" fill-rule="evenodd">
        <path d="M515.151515,242.424242 L424.242424,242.424242 L424.242424,163.636364 C424.242424,153.030303 419.69697,143.939394 413.636364,136.363636 L378.787879,101.515152 C371.212121,95.4545455 362.121212,90.9090909 351.515152,90.9090909 L333.333333,90.9090909 L333.333333,242.424242 L242.424242,242.424242 L242.424242,0 L374.242424,0 C393.939394,0 413.636364,7.57575758 427.272727,22.7272727 L492.424242,87.8787879 C507.575758,101.515152 515.151515,121.212121 515.151515,140.909091 L515.151515,242.424242 Z M909.090909,0 L909.090909,78.7878788 C909.090909,89.3939394 904.545455,98.4848485 898.484848,106.060606 L863.636364,140.909091 C856.060606,148.484848 846.969697,151.515152 836.363636,151.515152 L798.484848,151.515152 C810.606061,137.878788 818.181818,119.69697 818.181818,101.515152 L818.181818,0 L727.272727,0 L727.272727,78.7878788 C727.272727,89.3939394 722.727273,98.4848485 716.666667,106.060606 L681.818182,140.909091 C674.242424,148.484848 665.151515,151.515152 654.545455,151.515152 L636.363636,151.515152 L636.363636,0 L545.454545,0 L545.454545,242.424242 L677.272727,242.424242 C696.969697,242.424242 716.666667,234.848485 730.30303,219.69697 L772.727273,177.272727 L772.727273,242.424242 L859.090909,242.424242 C878.787879,242.424242 898.484848,234.848485 912.121212,219.69697 L977.272727,154.545455 C992.424242,140.909091 1000,121.212121 1000,101.515152 L1000,0 L909.090909,0 Z M212.121212,0 L0,0 L0,90.9090909 L60.6060606,90.9090909 L60.6060606,242.424242 L151.515152,242.424242 L151.515152,90.9090909 L212.121212,90.9090909 L212.121212,0 Z" id="Shape" fill="#FE4423" fill-rule="nonzero"></path>
    </g>
</svg>