<?xml version="1.0" encoding="UTF-8" standalone="no"?>
<svg width="70px" height="70px" viewBox="0 0 70 70" version="1.1" xmlns="http://www.w3.org/2000/svg" xmlns:xlink="http://www.w3.org/1999/xlink">
    <title>tq-logo-diamond</title>
    <defs></defs>
    <g id="Page-1" stroke="none" stroke-width="1" fill="none" fill-rule="evenodd">
        <g id="tq-logo-diamond" fill="#0000F2">
            <path d="M35,0 L0,35 L35,70 L70,35 L35,0 Z M32.4998333,29.9999583 L27.5000833,29.9999583 L27.5000833,45.000375 L22.5000417,45.000375 L22.5000417,29.9999583 L17.5,29.9999583 L17.5,24.9999167 L32.4998333,24.9999167 L32.4998333,29.9999583 Z M52.5,50.0004167 L46.6095,44.109625 L46.500125,43.9999583 L42.499625,40.0000417 L42.499625,45.0000833 C36.9769167,45.0000833 32.4998333,40.523 32.4998333,35 C32.4998333,29.4772917 36.9769167,24.9999167 42.4993333,24.9999167 C48.0229167,24.9999167 52.5,29.477 52.5,35 C52.5,38.9687083 50.18125,42.385 46.8305833,43.9999583 L52.5,43.9999583 L52.5,50.000125 L52.5,50.0004167 Z M42.4999167,40.0000417 C45.2613634,40.0000417 47.4999583,37.7614468 47.4999583,35 C47.4999583,32.2385532 45.2613634,29.9999583 42.4999167,29.9999583 C39.7384699,29.9999583 37.499875,32.2385532 37.499875,35 C37.499875,37.7614468 39.7384699,40.0000417 42.4999167,40.0000417 Z" id="Combined-Shape"></path>
        </g>
    </g>
</svg>